<!DOCTYPE svg PUBLIC "-//W3C//DTD SVG 20010904//EN" "http://www.w3.org/TR/2001/REC-SVG-20010904/DTD/svg10.dtd">
<svg version="1.0" xmlns="http://www.w3.org/2000/svg" width="622px" height="212px" viewBox="0 0 6220 2120" preserveAspectRatio="xMidYMid meet">
<g id="layer101" fill="#0e210d" stroke="none">
 <path d="M0 1060 l0 -1060 3110 0 3110 0 0 1060 0 1060 -3110 0 -3110 0 0 -1060z"/>
 </g>
<g id="layer102" fill="#62ab42" stroke="none">
 <path d="M0 1060 l0 -1060 3110 0 3110 0 0 1060 0 1060 -3110 0 -3110 0 0 -1060z m1982 18 l3 -223 65 0 c60 0 65 -2 68 -22 l3 -23 -170 0 -171 0 0 26 c0 26 1 27 54 20 91 -10 86 -24 86 225 l0 219 30 0 30 0 2 -222z m526 185 c20 -16 42 -44 49 -61 l13 -32 -34 0 c-26 0 -36 5 -41 21 -10 30 -64 59 -112 59 -45 0 -97 -34 -107 -70 -4 -11 -9 -29 -12 -40 -5 -19 -1 -20 152 -20 l157 0 -5 -50 c-15 -158 -200 -214 -314 -95 -52 54 -64 114 -40 197 26 91 86 131 189 125 57 -4 74 -9 105 -34z m249 -63 c1 -52 2 -110 2 -128 1 -47 47 -92 94 -92 26 0 37 -5 39 -17 5 -24 -2 -53 -14 -53 -21 0 -96 40 -102 55 -9 25 -27 17 -24 -12 3 -23 -2 -28 -29 -34 l-33 -6 0 187 c0 102 3 190 7 194 4 4 19 6 33 4 25 -3 25 -4 27 -98z m303 -20 c0 -71 5 -130 12 -145 14 -32 56 -55 98 -55 28 0 30 -3 30 -35 0 -24 -5 -35 -14 -35 -27 0 -71 21 -98 48 l-28 26 0 -32 c0 -29 -3 -32 -30 -32 l-30 0 0 190 0 190 30 0 30 0 0 -120z m480 99 c21 -12 44 -33 51 -48 14 -26 14 -25 17 22 3 45 5 47 33 47 l29 0 0 -190 0 -190 -30 0 c-29 0 -30 2 -30 42 l0 42 -33 -36 c-58 -63 -142 -72 -218 -23 -87 56 -105 221 -32 300 53 57 145 72 213 34z m340 -144 l0 -165 50 0 c33 0 50 -4 50 -12 0 -24 -15 -35 -52 -42 -29 -5 -38 -12 -38 -27 0 -35 18 -56 53 -63 27 -5 33 -11 32 -29 -2 -19 -7 -22 -44 -21 -52 1 -88 32 -103 91 -8 33 -16 45 -34 49 -35 9 -34 54 1 54 l25 0 0 158 c0 87 3 162 7 165 3 4 17 7 30 7 l23 0 0 -165z m260 -24 c0 -181 -1 -190 -20 -196 -11 -3 -24 -3 -30 0 -11 7 -14 367 -3 378 3 4 17 7 30 7 l23 0 0 -189z m202 59 c6 -144 13 -164 70 -194 44 -24 95 -16 129 20 23 24 24 34 27 165 l4 139 29 0 29 0 0 -143 c0 -139 -1 -144 -27 -185 -28 -43 -66 -62 -122 -62 -38 0 -110 39 -126 68 -14 27 -14 27 -15 -20 0 -45 -1 -47 -27 -45 l-28 2 -3 193 -2 192 28 0 29 0 5 -130z m658 115 c15 -8 37 -26 48 -40 25 -31 33 -32 31 -2 -4 46 1 57 25 57 13 0 27 -7 30 -16 8 -20 8 -452 0 -481 -4 -16 -14 -23 -30 -23 -23 0 -24 2 -25 88 -1 48 0 97 1 110 2 30 -13 28 -30 -4 -29 -53 -133 -77 -200 -46 -87 42 -127 179 -80 276 40 83 151 122 230 81z m537 -6 c44 -21 65 -45 78 -86 5 -20 3 -23 -21 -23 -18 0 -37 11 -58 36 -38 44 -103 57 -154 30 -33 -17 -62 -61 -62 -95 0 -20 7 -21 153 -23 l152 -3 -3 -45 c-3 -55 -39 -113 -84 -136 -43 -23 -142 -23 -185 -1 -86 45 -124 175 -78 267 18 34 55 73 85 87 41 19 128 16 177 -8z m273 -104 c0 -123 0 -125 28 -156 19 -21 41 -34 68 -38 35 -6 39 -9 42 -39 2 -23 -1 -32 -12 -32 -27 0 -71 21 -98 48 l-28 26 0 -32 c0 -19 -5 -32 -12 -33 -7 0 -23 -2 -34 -3 -22 -2 -22 -1 -22 178 0 99 2 186 5 193 3 7 18 13 34 13 l29 0 0 -125z m-1665 -370 c0 -24 -5 -31 -23 -33 -28 -4 -52 14 -52 38 0 21 15 30 50 27 21 -2 25 -7 25 -32z"/>
 <path d="M2266 1063 c10 -45 33 -74 69 -89 69 -29 136 -7 161 51 27 65 27 65 -111 65 l-125 0 6 -27z"/>
 <path d="M3414 1230 c-23 -12 -46 -32 -53 -46 -15 -33 -14 -123 2 -153 26 -52 122 -80 176 -52 33 18 63 78 64 129 1 60 -23 105 -67 126 -45 21 -72 20 -122 -4z"/>
 <path d="M4882 1233 c-49 -24 -77 -86 -67 -149 15 -102 112 -148 201 -93 38 23 54 57 54 117 0 109 -94 171 -188 125z"/>
 <path d="M5320 1070 c0 -62 76 -119 143 -106 51 10 86 43 94 89 l6 37 -122 0 c-113 0 -121 -1 -121 -20z"/>
 </g>
<g id="layer103" fill="#fefffe" stroke="none">
 <path d="M0 1060 l0 -1060 3110 0 3110 0 0 1060 0 1060 -3110 0 -3110 0 0 -1060z m1282 744 c141 -44 219 -86 281 -153 59 -64 75 -110 62 -173 -10 -46 -78 -131 -133 -167 -43 -27 -113 -61 -127 -61 -3 0 -5 18 -5 40 0 56 -27 80 -131 119 -295 111 -345 146 -337 233 7 64 45 111 127 155 80 42 145 44 263 7z m-806 -101 c-4 -9 -9 -42 -13 -73 -8 -85 23 -137 112 -182 72 -38 206 -79 382 -118 95 -21 184 -45 198 -54 47 -31 41 -79 -14 -112 -16 -10 -34 -28 -40 -41 -12 -27 -14 -102 -3 -119 4 -6 32 -19 62 -29 55 -17 154 -67 175 -89 84 -84 77 -193 -17 -282 -28 -26 -59 -66 -69 -89 -42 -95 -131 -162 -225 -169 -106 -8 -196 46 -253 153 -17 33 -50 75 -72 94 -52 45 -79 99 -79 158 0 103 46 151 205 215 l80 32 3 60 3 59 -93 12 c-51 7 -112 15 -135 18 l-43 5 0 -36 c0 -33 4 -38 49 -61 27 -13 52 -29 56 -34 3 -6 -9 -18 -27 -27 -103 -53 -158 -136 -158 -238 0 -91 15 -132 67 -182 51 -50 49 -64 -14 -85 -46 -15 -105 -5 -165 28 -64 35 -113 90 -152 172 -26 56 -31 78 -31 141 0 120 48 185 168 225 l47 17 0 54 c0 63 -9 75 -94 123 -129 74 -193 174 -166 258 27 79 90 144 185 189 60 28 80 30 71 7z m2016 -424 c28 -15 61 -56 70 -86 6 -21 3 -23 -27 -23 -25 0 -35 5 -40 21 -10 31 -64 59 -113 59 -37 0 -50 -6 -78 -34 -24 -24 -34 -43 -34 -65 l0 -31 149 0 c109 0 150 -3 153 -12 3 -7 1 -32 -3 -55 -30 -160 -254 -195 -342 -53 -42 68 -25 199 32 254 53 51 163 63 233 25z m2539 -19 l39 -37 0 39 c0 37 1 38 35 38 l35 0 0 -260 0 -260 -35 0 -35 0 0 105 0 105 -27 -30 c-33 -35 -103 -56 -156 -46 -79 15 -136 97 -137 195 0 123 84 204 200 193 31 -3 51 -13 81 -42z m-3049 -177 l3 -218 68 -3 c63 -3 67 -4 67 -27 0 -27 -26 -35 -105 -30 -27 2 -92 4 -142 4 -92 1 -93 1 -93 26 0 24 2 25 70 25 l70 0 0 220 0 220 30 0 30 0 2 -217z m778 87 c3 -69 9 -132 13 -140 11 -22 47 -43 87 -49 31 -6 35 -10 38 -39 3 -27 0 -32 -17 -32 -24 0 -98 37 -108 54 -5 6 -10 -1 -13 -19 -4 -25 -10 -31 -38 -33 l-32 -3 0 196 0 196 33 -3 32 -3 5 -125z m300 14 c0 -135 13 -176 62 -193 17 -6 42 -11 54 -11 21 0 24 -5 24 -35 0 -25 -4 -35 -15 -35 -27 0 -81 27 -104 51 l-21 23 0 -37 c0 -34 -2 -37 -30 -37 l-30 0 0 195 0 195 30 0 30 0 0 -116z m480 101 c16 -8 34 -24 40 -35 14 -27 30 -16 30 21 0 26 3 29 30 29 l30 0 0 -195 0 -195 -30 0 c-27 0 -30 4 -36 38 l-6 38 -32 -32 c-34 -34 -102 -52 -149 -40 -98 24 -159 148 -128 258 15 51 36 79 82 107 41 25 126 28 169 6z m341 -152 l-2 -163 51 0 c50 0 51 -1 48 -27 -3 -25 -7 -28 -45 -31 -38 -3 -43 -6 -43 -27 0 -30 21 -52 60 -60 24 -5 30 -12 30 -32 0 -24 -2 -25 -46 -20 -58 6 -102 46 -110 99 -6 32 -11 38 -30 38 -20 0 -24 5 -24 30 0 25 4 30 25 30 l25 0 0 166 0 165 32 -3 31 -3 -2 -162z m261 -15 c2 -101 1 -189 -1 -196 -2 -8 -15 -12 -30 -10 l-26 3 -3 193 -2 192 29 0 30 0 3 -182z m202 155 c4 -16 5 -71 5 -123 -2 -116 3 -134 48 -164 47 -32 104 -29 141 8 26 26 27 30 30 166 l4 140 28 0 c35 0 40 -17 39 -130 0 -188 -44 -260 -156 -260 -43 0 -99 25 -118 54 -14 18 -20 15 -16 -8 5 -27 -12 -47 -37 -44 l-27 3 -3 193 -2 192 29 0 c24 0 30 -5 35 -27z m1193 7 c40 -18 83 -68 83 -97 0 -8 -14 -13 -35 -13 -22 0 -35 5 -35 13 0 26 -48 59 -93 64 -73 8 -137 -42 -137 -107 0 -19 5 -20 149 -20 83 0 152 -4 156 -9 3 -6 2 -28 -1 -51 -18 -114 -142 -180 -252 -135 -69 29 -97 66 -112 146 -17 90 24 184 94 215 45 19 134 17 183 -6z m273 -105 c0 -122 1 -125 28 -155 19 -23 39 -33 70 -37 40 -5 42 -7 42 -39 0 -28 -4 -34 -21 -34 -24 0 -99 39 -99 52 0 4 -4 8 -10 8 -5 0 -10 -13 -10 -30 0 -28 -3 -30 -35 -30 l-35 0 0 195 0 195 35 0 35 0 0 -125z m-1662 -347 c18 -18 14 -36 -12 -53 -29 -19 -54 -10 -62 22 -10 38 44 61 74 31z"/>
 <path d="M2270 1068 c0 -34 42 -87 78 -99 69 -23 144 19 158 89 l7 32 -122 0 c-118 0 -121 -1 -121 -22z"/>
 <path d="M4894 1241 c-32 -14 -71 -66 -78 -105 -17 -89 41 -166 123 -166 81 0 131 52 131 137 0 52 -25 104 -58 122 -29 15 -94 22 -118 12z"/>
 <path d="M3425 1236 c-51 -23 -68 -51 -73 -116 -7 -94 39 -150 123 -150 48 0 82 18 106 57 26 42 29 122 5 158 -35 53 -107 76 -161 51z"/>
 <path d="M5320 1066 c0 -31 41 -80 80 -96 65 -27 146 15 157 83 l6 37 -122 0 -121 0 0 -24z"/>
 </g>

</svg>